<?xml version="1.0" encoding="utf-8"?>
<svg viewBox="0 0 1200 800" xmlns="http://www.w3.org/2000/svg">
  <defs>
    <style>
      .wall { fill: none; stroke: #333; stroke-width: 3; }
      .room { fill: #e8eaf6; stroke: #666; stroke-width: 1.5; }
      .hall { fill: #f5f5f5; stroke: #999; stroke-width: 1; }
      .label { font-family: Arial, sans-serif; font-size: 14px; fill: #333; text-anchor: middle; }
      .floor-label { font-family: Arial, sans-serif; font-size: 22px; fill: #225EA9; font-weight: bold; }
      .elevator-zone { fill: #fff3cd; stroke: #ffc107; stroke-width: 2; stroke-dasharray: 5,3; }
    </style>
  </defs>

  <!-- Floor outline -->
  <rect x="50" y="50" width="1100" height="700" rx="8" class="wall" fill="#fafafa"/>

  <!-- Main hallway -->
  <rect x="50" y="320" width="1100" height="160" class="hall"/>

  <!-- Rooms - top row -->
  <rect x="80" y="80" width="200" height="220" rx="4" class="room"/>
  <text x="180" y="200" class="label">Outpatient Clinic</text>

  <rect x="310" y="80" width="200" height="220" rx="4" class="room"/>
  <text x="410" y="200" class="label">Cardiology Unit</text>

  <rect x="540" y="80" width="200" height="220" rx="4" class="room"/>
  <text x="640" y="200" class="label">Cafeteria</text>

  <rect x="770" y="80" width="200" height="220" rx="4" class="room"/>
  <text x="870" y="200" class="label">Physical Therapy</text>

  <!-- Rooms - bottom row -->
  <rect x="80" y="500" width="200" height="220" rx="4" class="room"/>
  <text x="180" y="620" class="label">Laboratory</text>

  <rect x="310" y="500" width="200" height="220" rx="4" class="room"/>
  <text x="410" y="620" class="label">Administration</text>

  <rect x="540" y="500" width="200" height="220" rx="4" class="room"/>
  <text x="640" y="620" class="label">Chapel</text>

  <rect x="770" y="500" width="200" height="220" rx="4" class="room"/>
  <text x="870" y="620" class="label">Gift Shop</text>

  <!-- Elevator -->
  <rect x="1020" y="340" width="100" height="120" rx="6" class="elevator-zone"/>
  <text x="1070" y="395" class="label" font-size="11">Elevator A</text>
  <text x="1070" y="415" class="label" font-size="10">↕</text>

  <!-- Floor label -->
  <text x="100" y="770" class="floor-label">Floor 2</text>
</svg>
